<?xml version="1.0" encoding="UTF-8" standalone="no"?>
<!DOCTYPE svg PUBLIC "-//W3C//DTD SVG 1.1//EN"
 "http://www.w3.org/Graphics/SVG/1.1/DTD/svg11.dtd">
<!-- Generated by graphviz version 9.0.0 (0)
 -->
<!-- Title: snakemake_dag Pages: 1 -->
<svg width="616pt" height="188pt"
 viewBox="0.00 0.00 615.75 188.00" xmlns="http://www.w3.org/2000/svg" xmlns:xlink="http://www.w3.org/1999/xlink">
<g id="graph0" class="graph" transform="scale(1 1) rotate(0) translate(4 184)">
<title>snakemake_dag</title>
<polygon fill="white" stroke="none" points="-4,4 -4,-184 611.75,-184 611.75,4 -4,4"/>
<!-- 0 -->
<g id="node1" class="node">
<title>0</title>
<path fill="none" stroke="#d8cb56" stroke-width="2" d="M358.38,-36C358.38,-36 292.88,-36 292.88,-36 286.88,-36 280.88,-30 280.88,-24 280.88,-24 280.88,-12 280.88,-12 280.88,-6 286.88,0 292.88,0 292.88,0 358.38,0 358.38,0 364.38,0 370.38,-6 370.38,-12 370.38,-12 370.38,-24 370.38,-24 370.38,-30 364.38,-36 358.38,-36"/>
<text text-anchor="middle" x="325.62" y="-14.12" font-family="sans" font-size="10.00">FINAL_TARGET</text>
</g>
<!-- 1 -->
<g id="node2" class="node">
<title>1</title>
<path fill="none" stroke="#70d856" stroke-width="2" d="M147.75,-108C147.75,-108 81.5,-108 81.5,-108 75.5,-108 69.5,-102 69.5,-96 69.5,-96 69.5,-84 69.5,-84 69.5,-78 75.5,-72 81.5,-72 81.5,-72 147.75,-72 147.75,-72 153.75,-72 159.75,-78 159.75,-84 159.75,-84 159.75,-96 159.75,-96 159.75,-102 153.75,-108 147.75,-108"/>
<text text-anchor="middle" x="114.62" y="-86.12" font-family="sans" font-size="10.00">render_bs4_book</text>
</g>
<!-- 1&#45;&gt;0 -->
<g id="edge2" class="edge">
<title>1&#45;&gt;0</title>
<path fill="none" stroke="grey" stroke-width="2" d="M160.67,-73.72C192.2,-63.26 234.26,-49.31 268.02,-38.11"/>
<polygon fill="grey" stroke="grey" stroke-width="2" points="268.78,-41.55 277.17,-35.08 266.58,-34.9 268.78,-41.55"/>
</g>
<!-- 2 -->
<g id="node3" class="node">
<title>2</title>
<path fill="none" stroke="#d85656" stroke-width="2" d="M87.25,-180C87.25,-180 12,-180 12,-180 6,-180 0,-174 0,-168 0,-168 0,-156 0,-156 0,-150 6,-144 12,-144 12,-144 87.25,-144 87.25,-144 93.25,-144 99.25,-150 99.25,-156 99.25,-156 99.25,-168 99.25,-168 99.25,-174 93.25,-180 87.25,-180"/>
<text text-anchor="middle" x="49.62" y="-158.12" font-family="sans" font-size="10.00">import_fastq_reads</text>
</g>
<!-- 2&#45;&gt;1 -->
<g id="edge6" class="edge">
<title>2&#45;&gt;1</title>
<path fill="none" stroke="grey" stroke-width="2" d="M66.03,-143.34C73.06,-135.77 81.43,-126.75 89.23,-118.35"/>
<polygon fill="grey" stroke="grey" stroke-width="2" points="91.7,-120.83 95.94,-111.12 86.57,-116.07 91.7,-120.83"/>
</g>
<!-- 3 -->
<g id="node4" class="node">
<title>3</title>
<path fill="none" stroke="#56d873" stroke-width="2" d="M229.62,-180C229.62,-180 129.62,-180 129.62,-180 123.62,-180 117.62,-174 117.62,-168 117.62,-168 117.62,-156 117.62,-156 117.62,-150 123.62,-144 129.62,-144 129.62,-144 229.62,-144 229.62,-144 235.62,-144 241.62,-150 241.62,-156 241.62,-156 241.62,-168 241.62,-168 241.62,-174 235.62,-180 229.62,-180"/>
<text text-anchor="middle" x="179.62" y="-158.12" font-family="sans" font-size="10.00">import_mothur_metadata</text>
</g>
<!-- 3&#45;&gt;1 -->
<g id="edge7" class="edge">
<title>3&#45;&gt;1</title>
<path fill="none" stroke="grey" stroke-width="2" d="M163.22,-143.34C156.19,-135.77 147.82,-126.75 140.02,-118.35"/>
<polygon fill="grey" stroke="grey" stroke-width="2" points="142.68,-116.07 133.31,-111.12 137.55,-120.83 142.68,-116.07"/>
</g>
<!-- 4 -->
<g id="node5" class="node">
<title>4</title>
<path fill="none" stroke="#d88d56" stroke-width="2" d="M261.75,-108C261.75,-108 189.5,-108 189.5,-108 183.5,-108 177.5,-102 177.5,-96 177.5,-96 177.5,-84 177.5,-84 177.5,-78 183.5,-72 189.5,-72 189.5,-72 261.75,-72 261.75,-72 267.75,-72 273.75,-78 273.75,-84 273.75,-84 273.75,-96 273.75,-96 273.75,-102 267.75,-108 261.75,-108"/>
<text text-anchor="middle" x="225.62" y="-86.12" font-family="sans" font-size="10.00">snakemake_report</text>
</g>
<!-- 4&#45;&gt;0 -->
<g id="edge1" class="edge">
<title>4&#45;&gt;0</title>
<path fill="none" stroke="grey" stroke-width="2" d="M251.12,-71.15C262.87,-62.93 277.03,-53.02 289.83,-44.06"/>
<polygon fill="grey" stroke="grey" stroke-width="2" points="291.51,-47.15 297.7,-38.55 287.5,-41.42 291.51,-47.15"/>
</g>
<!-- 5 -->
<g id="node6" class="node">
<title>5</title>
<path fill="none" stroke="#5692d8" stroke-width="2" d="M347.12,-108C347.12,-108 304.12,-108 304.12,-108 298.12,-108 292.12,-102 292.12,-96 292.12,-96 292.12,-84 292.12,-84 292.12,-78 298.12,-72 304.12,-72 304.12,-72 347.12,-72 347.12,-72 353.12,-72 359.12,-78 359.12,-84 359.12,-84 359.12,-96 359.12,-96 359.12,-102 353.12,-108 347.12,-108"/>
<text text-anchor="middle" x="325.62" y="-86.12" font-family="sans" font-size="10.00">project_tree</text>
</g>
<!-- 5&#45;&gt;0 -->
<g id="edge5" class="edge">
<title>5&#45;&gt;0</title>
<path fill="none" stroke="grey" stroke-width="2" d="M325.62,-71.34C325.62,-64.75 325.62,-57.08 325.62,-49.67"/>
<polygon fill="grey" stroke="grey" stroke-width="2" points="329.13,-49.93 325.63,-39.93 322.13,-49.93 329.13,-49.93"/>
</g>
<!-- 6 -->
<g id="node7" class="node">
<title>6</title>
<path fill="none" stroke="#56c9d8" stroke-width="2" d="M463.88,-108C463.88,-108 389.38,-108 389.38,-108 383.38,-108 377.38,-102 377.38,-96 377.38,-96 377.38,-84 377.38,-84 377.38,-78 383.38,-72 389.38,-72 389.38,-72 463.88,-72 463.88,-72 469.88,-72 475.88,-78 475.88,-84 475.88,-84 475.88,-96 475.88,-96 475.88,-102 469.88,-108 463.88,-108"/>
<text text-anchor="middle" x="426.62" y="-86.12" font-family="sans" font-size="10.00">generate_rulegraph</text>
</g>
<!-- 6&#45;&gt;0 -->
<g id="edge4" class="edge">
<title>6&#45;&gt;0</title>
<path fill="none" stroke="grey" stroke-width="2" d="M400.88,-71.15C389.01,-62.93 374.71,-53.02 361.78,-44.06"/>
<polygon fill="grey" stroke="grey" stroke-width="2" points="364.03,-41.36 353.81,-38.54 360.04,-47.11 364.03,-41.36"/>
</g>
<!-- 7 -->
<g id="node8" class="node">
<title>7</title>
<path fill="none" stroke="#56d8a9" stroke-width="2" d="M595.75,-108C595.75,-108 505.5,-108 505.5,-108 499.5,-108 493.5,-102 493.5,-96 493.5,-96 493.5,-84 493.5,-84 493.5,-78 499.5,-72 505.5,-72 505.5,-72 595.75,-72 595.75,-72 601.75,-72 607.75,-78 607.75,-84 607.75,-84 607.75,-96 607.75,-96 607.75,-102 601.75,-108 595.75,-108"/>
<text text-anchor="middle" x="550.62" y="-86.12" font-family="sans" font-size="10.00">download_mothur_refs</text>
</g>
<!-- 7&#45;&gt;0 -->
<g id="edge3" class="edge">
<title>7&#45;&gt;0</title>
<path fill="none" stroke="grey" stroke-width="2" d="M492.97,-71.06C459.38,-60.61 417.14,-47.47 383.5,-37.01"/>
<polygon fill="grey" stroke="grey" stroke-width="2" points="384.55,-33.67 373.96,-34.04 382.47,-40.35 384.55,-33.67"/>
</g>
</g>
</svg>
