<?xml version="1.0" encoding="UTF-8" standalone="no"?>
<!DOCTYPE svg PUBLIC "-//W3C//DTD SVG 1.1//EN"
 "http://www.w3.org/Graphics/SVG/1.1/DTD/svg11.dtd">
<!-- Generated by graphviz version 9.0.0 (0)
 -->
<!-- Title: snakemake_dag Pages: 1 -->
<svg width="250pt" height="188pt"
 viewBox="0.00 0.00 249.62 188.00" xmlns="http://www.w3.org/2000/svg" xmlns:xlink="http://www.w3.org/1999/xlink">
<g id="graph0" class="graph" transform="scale(1 1) rotate(0) translate(4 184)">
<title>snakemake_dag</title>
<polygon fill="white" stroke="none" points="-4,4 -4,-184 245.62,-184 245.62,4 -4,4"/>
<!-- 0 -->
<g id="node1" class="node">
<title>0</title>
<path fill="none" stroke="#56d873" stroke-width="2" d="M147.38,-36C147.38,-36 81.88,-36 81.88,-36 75.88,-36 69.88,-30 69.88,-24 69.88,-24 69.88,-12 69.88,-12 69.88,-6 75.88,0 81.88,0 81.88,0 147.38,0 147.38,0 153.38,0 159.38,-6 159.38,-12 159.38,-12 159.38,-24 159.38,-24 159.38,-30 153.38,-36 147.38,-36"/>
<text text-anchor="middle" x="114.62" y="-14.12" font-family="sans" font-size="10.00">FINAL_TARGET</text>
</g>
<!-- 1 -->
<g id="node2" class="node">
<title>1</title>
<path fill="none" stroke="#d85656" stroke-width="2" d="M147.75,-108C147.75,-108 81.5,-108 81.5,-108 75.5,-108 69.5,-102 69.5,-96 69.5,-96 69.5,-84 69.5,-84 69.5,-78 75.5,-72 81.5,-72 81.5,-72 147.75,-72 147.75,-72 153.75,-72 159.75,-78 159.75,-84 159.75,-84 159.75,-96 159.75,-96 159.75,-102 153.75,-108 147.75,-108"/>
<text text-anchor="middle" x="114.62" y="-86.12" font-family="sans" font-size="10.00">render_bs4_book</text>
</g>
<!-- 1&#45;&gt;0 -->
<g id="edge1" class="edge">
<title>1&#45;&gt;0</title>
<path fill="none" stroke="grey" stroke-width="2" d="M114.62,-71.34C114.62,-64.75 114.62,-57.08 114.62,-49.67"/>
<polygon fill="grey" stroke="grey" stroke-width="2" points="118.13,-49.93 114.63,-39.93 111.13,-49.93 118.13,-49.93"/>
</g>
<!-- 2 -->
<g id="node3" class="node">
<title>2</title>
<path fill="none" stroke="#56d8a9" stroke-width="2" d="M87.25,-180C87.25,-180 12,-180 12,-180 6,-180 0,-174 0,-168 0,-168 0,-156 0,-156 0,-150 6,-144 12,-144 12,-144 87.25,-144 87.25,-144 93.25,-144 99.25,-150 99.25,-156 99.25,-156 99.25,-168 99.25,-168 99.25,-174 93.25,-180 87.25,-180"/>
<text text-anchor="middle" x="49.62" y="-158.12" font-family="sans" font-size="10.00">import_fastq_reads</text>
</g>
<!-- 2&#45;&gt;1 -->
<g id="edge2" class="edge">
<title>2&#45;&gt;1</title>
<path fill="none" stroke="grey" stroke-width="2" d="M66.03,-143.34C73.06,-135.77 81.43,-126.75 89.23,-118.35"/>
<polygon fill="grey" stroke="grey" stroke-width="2" points="91.7,-120.83 95.94,-111.12 86.57,-116.07 91.7,-120.83"/>
</g>
<!-- 3 -->
<g id="node4" class="node">
<title>3</title>
<path fill="none" stroke="#d88d56" stroke-width="2" d="M229.62,-180C229.62,-180 129.62,-180 129.62,-180 123.62,-180 117.62,-174 117.62,-168 117.62,-168 117.62,-156 117.62,-156 117.62,-150 123.62,-144 129.62,-144 129.62,-144 229.62,-144 229.62,-144 235.62,-144 241.62,-150 241.62,-156 241.62,-156 241.62,-168 241.62,-168 241.62,-174 235.62,-180 229.62,-180"/>
<text text-anchor="middle" x="179.62" y="-158.12" font-family="sans" font-size="10.00">import_mothur_metadata</text>
</g>
<!-- 3&#45;&gt;1 -->
<g id="edge3" class="edge">
<title>3&#45;&gt;1</title>
<path fill="none" stroke="grey" stroke-width="2" d="M163.22,-143.34C156.19,-135.77 147.82,-126.75 140.02,-118.35"/>
<polygon fill="grey" stroke="grey" stroke-width="2" points="142.68,-116.07 133.31,-111.12 137.55,-120.83 142.68,-116.07"/>
</g>
</g>
</svg>
