<?xml version="1.0" encoding="UTF-8" standalone="no"?>
<!DOCTYPE svg PUBLIC "-//W3C//DTD SVG 1.1//EN"
 "http://www.w3.org/Graphics/SVG/1.1/DTD/svg11.dtd">
<!-- Generated by graphviz version 6.0.1 (0)
 -->
<!-- Title: snakemake_dag Pages: 1 -->
<svg width="998pt" height="332pt"
 viewBox="0.00 0.00 997.61 332.00" xmlns="http://www.w3.org/2000/svg" xmlns:xlink="http://www.w3.org/1999/xlink">
<g id="graph0" class="graph" transform="scale(1 1) rotate(0) translate(4 328)">
<title>snakemake_dag</title>
<polygon fill="white" stroke="none" points="-4,4 -4,-328 993.61,-328 993.61,4 -4,4"/>
<!-- 0 -->
<g id="node1" class="node">
<title>0</title>
<path fill="none" stroke="#afd856" stroke-width="2" d="M459.61,-36C459.61,-36 429.61,-36 429.61,-36 423.61,-36 417.61,-30 417.61,-24 417.61,-24 417.61,-12 417.61,-12 417.61,-6 423.61,0 429.61,0 429.61,0 459.61,0 459.61,0 465.61,0 471.61,-6 471.61,-12 471.61,-12 471.61,-24 471.61,-24 471.61,-30 465.61,-36 459.61,-36"/>
<text text-anchor="middle" x="444.61" y="-15.5" font-family="sans" font-size="10.00">all</text>
</g>
<!-- 1 -->
<g id="node2" class="node">
<title>1</title>
<path fill="none" stroke="#56d8a9" stroke-width="2" d="M300.11,-252C300.11,-252 185.11,-252 185.11,-252 179.11,-252 173.11,-246 173.11,-240 173.11,-240 173.11,-228 173.11,-228 173.11,-222 179.11,-216 185.11,-216 185.11,-216 300.11,-216 300.11,-216 306.11,-216 312.11,-222 312.11,-228 312.11,-228 312.11,-240 312.11,-240 312.11,-246 306.11,-252 300.11,-252"/>
<text text-anchor="middle" x="242.61" y="-231.5" font-family="sans" font-size="10.00">mothur_process_sequences</text>
</g>
<!-- 1&#45;&gt;0 -->
<g id="edge2" class="edge">
<title>1&#45;&gt;0</title>
<path fill="none" stroke="grey" stroke-width="2" d="M172.89,-232.71C92.08,-229.23 -26.22,-212.69 5.61,-144 26.43,-99.08 45.52,-92.45 90.61,-72 198.06,-23.28 340.82,-17.67 407.44,-18.03"/>
<polygon fill="grey" stroke="grey" stroke-width="2" points="407.42,-21.53 417.46,-18.13 407.49,-14.53 407.42,-21.53"/>
</g>
<!-- 5 -->
<g id="node6" class="node">
<title>5</title>
<path fill="none" stroke="#d8a456" stroke-width="2" d="M456.61,-180C456.61,-180 348.61,-180 348.61,-180 342.61,-180 336.61,-174 336.61,-168 336.61,-168 336.61,-156 336.61,-156 336.61,-150 342.61,-144 348.61,-144 348.61,-144 456.61,-144 456.61,-144 462.61,-144 468.61,-150 468.61,-156 468.61,-156 468.61,-168 468.61,-168 468.61,-174 462.61,-180 456.61,-180"/>
<text text-anchor="middle" x="402.61" y="-159.5" font-family="sans" font-size="10.00">mothur_calculate_errorrate</text>
</g>
<!-- 1&#45;&gt;5 -->
<g id="edge17" class="edge">
<title>1&#45;&gt;5</title>
<path fill="none" stroke="grey" stroke-width="2" d="M281.75,-215.88C303.63,-206.31 331.07,-194.3 354.28,-184.15"/>
<polygon fill="grey" stroke="grey" stroke-width="2" points="355.84,-187.28 363.6,-180.07 353.04,-180.87 355.84,-187.28"/>
</g>
<!-- 7 -->
<g id="node8" class="node">
<title>7</title>
<path fill="none" stroke="#56b9d8" stroke-width="2" d="M136.61,-180C136.61,-180 26.61,-180 26.61,-180 20.61,-180 14.61,-174 14.61,-168 14.61,-168 14.61,-156 14.61,-156 14.61,-150 20.61,-144 26.61,-144 26.61,-144 136.61,-144 136.61,-144 142.61,-144 148.61,-150 148.61,-156 148.61,-156 148.61,-168 148.61,-168 148.61,-174 142.61,-180 136.61,-180"/>
<text text-anchor="middle" x="81.61" y="-159.5" font-family="sans" font-size="10.00">remove_intermedeate_files</text>
</g>
<!-- 1&#45;&gt;7 -->
<g id="edge19" class="edge">
<title>1&#45;&gt;7</title>
<path fill="none" stroke="grey" stroke-width="2" d="M203.23,-215.88C181.22,-206.31 153.6,-194.3 130.25,-184.15"/>
<polygon fill="grey" stroke="grey" stroke-width="2" points="131.44,-180.85 120.87,-180.07 128.65,-187.27 131.44,-180.85"/>
</g>
<!-- 9 -->
<g id="node10" class="node">
<title>9</title>
<path fill="none" stroke="#c6d856" stroke-width="2" d="M306.61,-180C306.61,-180 178.61,-180 178.61,-180 172.61,-180 166.61,-174 166.61,-168 166.61,-168 166.61,-156 166.61,-156 166.61,-150 172.61,-144 178.61,-144 178.61,-144 306.61,-144 306.61,-144 312.61,-144 318.61,-150 318.61,-156 318.61,-156 318.61,-168 318.61,-168 318.61,-174 312.61,-180 306.61,-180"/>
<text text-anchor="middle" x="242.61" y="-159.5" font-family="sans" font-size="10.00">samples_mock_control_shared</text>
</g>
<!-- 1&#45;&gt;9 -->
<g id="edge20" class="edge">
<title>1&#45;&gt;9</title>
<path fill="none" stroke="grey" stroke-width="2" d="M242.61,-215.7C242.61,-207.98 242.61,-198.71 242.61,-190.11"/>
<polygon fill="grey" stroke="grey" stroke-width="2" points="246.11,-190.1 242.61,-180.1 239.11,-190.1 246.11,-190.1"/>
</g>
<!-- 2 -->
<g id="node3" class="node">
<title>2</title>
<path fill="none" stroke="#d8d356" stroke-width="2" d="M142.61,-324C142.61,-324 30.61,-324 30.61,-324 24.61,-324 18.61,-318 18.61,-312 18.61,-312 18.61,-300 18.61,-300 18.61,-294 24.61,-288 30.61,-288 30.61,-288 142.61,-288 142.61,-288 148.61,-288 154.61,-294 154.61,-300 154.61,-300 154.61,-312 154.61,-312 154.61,-318 148.61,-324 142.61,-324"/>
<text text-anchor="middle" x="86.61" y="-303.5" font-family="sans" font-size="10.00">auto_mothur_mapping_files</text>
</g>
<!-- 2&#45;&gt;1 -->
<g id="edge15" class="edge">
<title>2&#45;&gt;1</title>
<path fill="none" stroke="grey" stroke-width="2" d="M124.77,-287.88C146.01,-278.35 172.62,-266.41 195.18,-256.28"/>
<polygon fill="grey" stroke="grey" stroke-width="2" points="196.88,-259.36 204.57,-252.07 194.02,-252.97 196.88,-259.36"/>
</g>
<!-- 3 -->
<g id="node4" class="node">
<title>3</title>
<path fill="none" stroke="#56d87b" stroke-width="2" d="M441.61,-324C441.61,-324 349.61,-324 349.61,-324 343.61,-324 337.61,-318 337.61,-312 337.61,-312 337.61,-300 337.61,-300 337.61,-294 343.61,-288 349.61,-288 349.61,-288 441.61,-288 441.61,-288 447.61,-288 453.61,-294 453.61,-300 453.61,-300 453.61,-312 453.61,-312 453.61,-318 447.61,-324 441.61,-324"/>
<text text-anchor="middle" x="395.61" y="-303.5" font-family="sans" font-size="10.00">get_mothur_references</text>
</g>
<!-- 3&#45;&gt;1 -->
<g id="edge13" class="edge">
<title>3&#45;&gt;1</title>
<path fill="none" stroke="grey" stroke-width="2" d="M358.18,-287.88C337.36,-278.35 311.26,-266.41 289.13,-256.28"/>
<polygon fill="grey" stroke="grey" stroke-width="2" points="290.47,-253.05 279.92,-252.07 287.56,-259.41 290.47,-253.05"/>
</g>
<!-- 6 -->
<g id="node7" class="node">
<title>6</title>
<path fill="none" stroke="#56d8c9" stroke-width="2" d="M447.61,-252C447.61,-252 347.61,-252 347.61,-252 341.61,-252 335.61,-246 335.61,-240 335.61,-240 335.61,-228 335.61,-228 335.61,-222 341.61,-216 347.61,-216 347.61,-216 447.61,-216 447.61,-216 453.61,-216 459.61,-222 459.61,-228 459.61,-228 459.61,-240 459.61,-240 459.61,-246 453.61,-252 447.61,-252"/>
<text text-anchor="middle" x="397.61" y="-231.5" font-family="sans" font-size="10.00">get_mothur_zymo_mock</text>
</g>
<!-- 3&#45;&gt;6 -->
<g id="edge18" class="edge">
<title>3&#45;&gt;6</title>
<path fill="none" stroke="grey" stroke-width="2" d="M396.11,-287.7C396.33,-279.98 396.59,-270.71 396.84,-262.11"/>
<polygon fill="grey" stroke="grey" stroke-width="2" points="400.34,-262.2 397.12,-252.1 393.34,-262 400.34,-262.2"/>
</g>
<!-- 4 -->
<g id="node5" class="node">
<title>4</title>
<path fill="none" stroke="#61d856" stroke-width="2" d="M304.61,-324C304.61,-324 184.61,-324 184.61,-324 178.61,-324 172.61,-318 172.61,-312 172.61,-312 172.61,-300 172.61,-300 172.61,-294 178.61,-288 184.61,-288 184.61,-288 304.61,-288 304.61,-288 310.61,-288 316.61,-294 316.61,-300 316.61,-300 316.61,-312 316.61,-312 316.61,-318 310.61,-324 304.61,-324"/>
<text text-anchor="middle" x="244.61" y="-303.5" font-family="sans" font-size="10.00">import_mothur_mapping_files</text>
</g>
<!-- 4&#45;&gt;1 -->
<g id="edge14" class="edge">
<title>4&#45;&gt;1</title>
<path fill="none" stroke="grey" stroke-width="2" d="M244.12,-287.7C243.9,-279.98 243.63,-270.71 243.39,-262.11"/>
<polygon fill="grey" stroke="grey" stroke-width="2" points="246.89,-262 243.1,-252.1 239.89,-262.2 246.89,-262"/>
</g>
<!-- 5&#45;&gt;0 -->
<g id="edge8" class="edge">
<title>5&#45;&gt;0</title>
<path fill="none" stroke="grey" stroke-width="2" d="M407.68,-143.87C414.87,-119.56 428.1,-74.82 436.62,-46.01"/>
<polygon fill="grey" stroke="grey" stroke-width="2" points="440.05,-46.77 439.53,-36.19 433.34,-44.79 440.05,-46.77"/>
</g>
<!-- 6&#45;&gt;5 -->
<g id="edge16" class="edge">
<title>6&#45;&gt;5</title>
<path fill="none" stroke="grey" stroke-width="2" d="M398.85,-215.7C399.4,-207.98 400.06,-198.71 400.68,-190.11"/>
<polygon fill="grey" stroke="grey" stroke-width="2" points="404.17,-190.33 401.39,-180.1 397.19,-189.83 404.17,-190.33"/>
</g>
<!-- 7&#45;&gt;0 -->
<g id="edge6" class="edge">
<title>7&#45;&gt;0</title>
<path fill="none" stroke="grey" stroke-width="2" d="M83.92,-143.94C87.64,-123.47 97,-89.72 119.61,-72 163.89,-37.32 332.07,-24.64 407.55,-20.63"/>
<polygon fill="grey" stroke="grey" stroke-width="2" points="407.76,-24.12 417.57,-20.12 407.4,-17.13 407.76,-24.12"/>
</g>
<!-- 8 -->
<g id="node9" class="node">
<title>8</title>
<path fill="none" stroke="#568ad8" stroke-width="2" d="M261.61,-108C261.61,-108 151.61,-108 151.61,-108 145.61,-108 139.61,-102 139.61,-96 139.61,-96 139.61,-84 139.61,-84 139.61,-78 145.61,-72 151.61,-72 151.61,-72 261.61,-72 261.61,-72 267.61,-72 273.61,-78 273.61,-84 273.61,-84 273.61,-96 273.61,-96 273.61,-102 267.61,-108 261.61,-108"/>
<text text-anchor="middle" x="206.61" y="-87.5" font-family="sans" font-size="10.00">gather_informative_images</text>
</g>
<!-- 8&#45;&gt;0 -->
<g id="edge10" class="edge">
<title>8&#45;&gt;0</title>
<path fill="none" stroke="grey" stroke-width="2" d="M264.53,-71.97C309.12,-58.85 369.4,-41.12 407.65,-29.87"/>
<polygon fill="grey" stroke="grey" stroke-width="2" points="408.74,-33.2 417.35,-27.02 406.77,-26.48 408.74,-33.2"/>
</g>
<!-- 9&#45;&gt;0 -->
<g id="edge12" class="edge">
<title>9&#45;&gt;0</title>
<path fill="none" stroke="grey" stroke-width="2" d="M176.06,-143.94C158.26,-136.02 141.08,-124.54 130.61,-108 122.05,-94.48 120.28,-84.22 130.61,-72 165.65,-30.55 331.65,-21.51 407.11,-19.54"/>
<polygon fill="grey" stroke="grey" stroke-width="2" points="407.65,-23.03 417.56,-19.3 407.49,-16.03 407.65,-23.03"/>
</g>
<!-- 10 -->
<g id="node11" class="node">
<title>10</title>
<path fill="none" stroke="#56d0d8" stroke-width="2" d="M385.61,-108C385.61,-108 303.61,-108 303.61,-108 297.61,-108 291.61,-102 291.61,-96 291.61,-96 291.61,-84 291.61,-84 291.61,-78 297.61,-72 303.61,-72 303.61,-72 385.61,-72 385.61,-72 391.61,-72 397.61,-78 397.61,-84 397.61,-84 397.61,-96 397.61,-96 397.61,-102 391.61,-108 385.61,-108"/>
<text text-anchor="middle" x="344.61" y="-87.5" font-family="sans" font-size="10.00">alpha_beta_diversity</text>
</g>
<!-- 9&#45;&gt;10 -->
<g id="edge21" class="edge">
<title>9&#45;&gt;10</title>
<path fill="none" stroke="grey" stroke-width="2" d="M267.56,-143.88C280.65,-134.89 296.87,-123.76 311.05,-114.03"/>
<polygon fill="grey" stroke="grey" stroke-width="2" points="313.3,-116.73 319.56,-108.19 309.34,-110.96 313.3,-116.73"/>
</g>
<!-- 10&#45;&gt;0 -->
<g id="edge5" class="edge">
<title>10&#45;&gt;0</title>
<path fill="none" stroke="grey" stroke-width="2" d="M369.08,-71.88C381.91,-62.89 397.81,-51.76 411.71,-42.03"/>
<polygon fill="grey" stroke="grey" stroke-width="2" points="413.87,-44.79 420.06,-36.19 409.86,-39.06 413.87,-44.79"/>
</g>
<!-- 11 -->
<g id="node12" class="node">
<title>11</title>
<path fill="none" stroke="#5673d8" stroke-width="2" d="M770.11,-324C770.11,-324 651.11,-324 651.11,-324 645.11,-324 639.11,-318 639.11,-312 639.11,-312 639.11,-300 639.11,-300 639.11,-294 645.11,-288 651.11,-288 651.11,-288 770.11,-288 770.11,-288 776.11,-288 782.11,-294 782.11,-300 782.11,-300 782.11,-312 782.11,-312 782.11,-318 776.11,-324 770.11,-324"/>
<text text-anchor="middle" x="710.61" y="-303.5" font-family="sans" font-size="10.00">import_qiime2_mapping_files</text>
</g>
<!-- 11&#45;&gt;0 -->
<g id="edge11" class="edge">
<title>11&#45;&gt;0</title>
<path fill="none" stroke="grey" stroke-width="2" d="M746.65,-287.86C761.44,-279.1 777.45,-267.07 787.61,-252 833.04,-184.63 872.9,-133.34 819.61,-72 776.05,-21.85 567.61,-17.85 481.73,-18.39"/>
<polygon fill="grey" stroke="grey" stroke-width="2" points="481.61,-14.89 471.64,-18.48 481.67,-21.89 481.61,-14.89"/>
</g>
<!-- 12 -->
<g id="node13" class="node">
<title>12</title>
<path fill="none" stroke="#56a2d8" stroke-width="2" d="M604.61,-180C604.61,-180 498.61,-180 498.61,-180 492.61,-180 486.61,-174 486.61,-168 486.61,-168 486.61,-156 486.61,-156 486.61,-150 492.61,-144 498.61,-144 498.61,-144 604.61,-144 604.61,-144 610.61,-144 616.61,-150 616.61,-156 616.61,-156 616.61,-168 616.61,-168 616.61,-174 610.61,-180 604.61,-180"/>
<text text-anchor="middle" x="551.61" y="-159.5" font-family="sans" font-size="10.00">qiime2_validate_metadata</text>
</g>
<!-- 11&#45;&gt;12 -->
<g id="edge22" class="edge">
<title>11&#45;&gt;12</title>
<path fill="none" stroke="grey" stroke-width="2" d="M682.43,-287.78C667.35,-278.03 648.81,-265.19 633.61,-252 610.8,-232.21 587.76,-206.59 571.93,-187.92"/>
<polygon fill="grey" stroke="grey" stroke-width="2" points="574.51,-185.55 565.4,-180.13 569.14,-190.04 574.51,-185.55"/>
</g>
<!-- 14 -->
<g id="node15" class="node">
<title>14</title>
<path fill="none" stroke="#d85656" stroke-width="2" d="M766.61,-252C766.61,-252 654.61,-252 654.61,-252 648.61,-252 642.61,-246 642.61,-240 642.61,-240 642.61,-228 642.61,-228 642.61,-222 648.61,-216 654.61,-216 654.61,-216 766.61,-216 766.61,-216 772.61,-216 778.61,-222 778.61,-228 778.61,-228 778.61,-240 778.61,-240 778.61,-246 772.61,-252 766.61,-252"/>
<text text-anchor="middle" x="710.61" y="-231.5" font-family="sans" font-size="10.00">qiime2_import_paired_fastq</text>
</g>
<!-- 11&#45;&gt;14 -->
<g id="edge24" class="edge">
<title>11&#45;&gt;14</title>
<path fill="none" stroke="grey" stroke-width="2" d="M710.61,-287.7C710.61,-279.98 710.61,-270.71 710.61,-262.11"/>
<polygon fill="grey" stroke="grey" stroke-width="2" points="714.11,-262.1 710.61,-252.1 707.11,-262.1 714.11,-262.1"/>
</g>
<!-- 12&#45;&gt;0 -->
<g id="edge7" class="edge">
<title>12&#45;&gt;0</title>
<path fill="none" stroke="grey" stroke-width="2" d="M522.95,-143.91C509.31,-134.65 493.63,-122.2 482.61,-108 468.19,-89.41 458.18,-64.52 452.06,-45.79"/>
<polygon fill="grey" stroke="grey" stroke-width="2" points="455.36,-44.61 449.06,-36.09 448.67,-46.68 455.36,-44.61"/>
</g>
<!-- 16 -->
<g id="node17" class="node">
<title>16</title>
<path fill="none" stroke="#78d856" stroke-width="2" d="M617.61,-108C617.61,-108 503.61,-108 503.61,-108 497.61,-108 491.61,-102 491.61,-96 491.61,-96 491.61,-84 491.61,-84 491.61,-78 497.61,-72 503.61,-72 503.61,-72 617.61,-72 617.61,-72 623.61,-72 629.61,-78 629.61,-84 629.61,-84 629.61,-96 629.61,-96 629.61,-102 623.61,-108 617.61,-108"/>
<text text-anchor="middle" x="560.61" y="-87.5" font-family="sans" font-size="10.00">qiime2_create_qc_qvz_data</text>
</g>
<!-- 12&#45;&gt;16 -->
<g id="edge27" class="edge">
<title>12&#45;&gt;16</title>
<path fill="none" stroke="grey" stroke-width="2" d="M553.84,-143.7C554.83,-135.98 556.02,-126.71 557.13,-118.11"/>
<polygon fill="grey" stroke="grey" stroke-width="2" points="560.61,-118.47 558.41,-108.1 553.67,-117.58 560.61,-118.47"/>
</g>
<!-- 13 -->
<g id="node14" class="node">
<title>13</title>
<path fill="none" stroke="#d86e56" stroke-width="2" d="M799.11,-108C799.11,-108 698.11,-108 698.11,-108 692.11,-108 686.11,-102 686.11,-96 686.11,-96 686.11,-84 686.11,-84 686.11,-78 692.11,-72 698.11,-72 698.11,-72 799.11,-72 799.11,-72 805.11,-72 811.11,-78 811.11,-84 811.11,-84 811.11,-96 811.11,-96 811.11,-102 805.11,-108 799.11,-108"/>
<text text-anchor="middle" x="748.61" y="-87.5" font-family="sans" font-size="10.00">qiime2_summarize_fastq</text>
</g>
<!-- 13&#45;&gt;0 -->
<g id="edge1" class="edge">
<title>13&#45;&gt;0</title>
<path fill="none" stroke="grey" stroke-width="2" d="M685.99,-74.58C624.36,-60.39 532.33,-39.2 481.56,-27.51"/>
<polygon fill="grey" stroke="grey" stroke-width="2" points="482.21,-24.07 471.68,-25.23 480.64,-30.89 482.21,-24.07"/>
</g>
<!-- 14&#45;&gt;13 -->
<g id="edge23" class="edge">
<title>14&#45;&gt;13</title>
<path fill="none" stroke="grey" stroke-width="2" d="M716.92,-215.96C720.6,-205.64 725.19,-192.16 728.61,-180 734.37,-159.55 739.58,-136.09 743.24,-118.39"/>
<polygon fill="grey" stroke="grey" stroke-width="2" points="746.75,-118.69 745.31,-108.2 739.89,-117.3 746.75,-118.69"/>
</g>
<!-- 15 -->
<g id="node16" class="node">
<title>15</title>
<path fill="none" stroke="#56d892" stroke-width="2" d="M708.11,-180C708.11,-180 647.11,-180 647.11,-180 641.11,-180 635.11,-174 635.11,-168 635.11,-168 635.11,-156 635.11,-156 635.11,-150 641.11,-144 647.11,-144 647.11,-144 708.11,-144 708.11,-144 714.11,-144 720.11,-150 720.11,-156 720.11,-156 720.11,-168 720.11,-168 720.11,-174 714.11,-180 708.11,-180"/>
<text text-anchor="middle" x="677.61" y="-159.5" font-family="sans" font-size="10.00">qiime2_read_qc</text>
</g>
<!-- 14&#45;&gt;15 -->
<g id="edge25" class="edge">
<title>14&#45;&gt;15</title>
<path fill="none" stroke="grey" stroke-width="2" d="M702.46,-215.7C698.7,-207.73 694.16,-198.1 689.99,-189.26"/>
<polygon fill="grey" stroke="grey" stroke-width="2" points="693.11,-187.66 685.68,-180.1 686.77,-190.64 693.11,-187.66"/>
</g>
<!-- 15&#45;&gt;0 -->
<g id="edge3" class="edge">
<title>15&#45;&gt;0</title>
<path fill="none" stroke="grey" stroke-width="2" d="M674.72,-143.96C670.4,-123.84 660.32,-90.74 638.61,-72 594.27,-33.72 524.72,-22.85 482.05,-19.9"/>
<polygon fill="grey" stroke="grey" stroke-width="2" points="482,-16.4 471.82,-19.32 481.6,-23.38 482,-16.4"/>
</g>
<!-- 15&#45;&gt;16 -->
<g id="edge26" class="edge">
<title>15&#45;&gt;16</title>
<path fill="none" stroke="grey" stroke-width="2" d="M648.99,-143.88C633.69,-134.72 614.67,-123.34 598.19,-113.48"/>
<polygon fill="grey" stroke="grey" stroke-width="2" points="599.72,-110.32 589.34,-108.19 596.13,-116.33 599.72,-110.32"/>
</g>
<!-- 16&#45;&gt;0 -->
<g id="edge4" class="edge">
<title>16&#45;&gt;0</title>
<path fill="none" stroke="grey" stroke-width="2" d="M532.24,-71.88C516.73,-62.52 497.36,-50.83 480.78,-40.83"/>
<polygon fill="grey" stroke="grey" stroke-width="2" points="482.27,-37.64 471.9,-35.47 478.65,-43.63 482.27,-37.64"/>
</g>
<!-- 17 -->
<g id="node18" class="node">
<title>17</title>
<path fill="none" stroke="#56d863" stroke-width="2" d="M977.61,-108C977.61,-108 879.61,-108 879.61,-108 873.61,-108 867.61,-102 867.61,-96 867.61,-96 867.61,-84 867.61,-84 867.61,-78 873.61,-72 879.61,-72 879.61,-72 977.61,-72 977.61,-72 983.61,-72 989.61,-78 989.61,-84 989.61,-84 989.61,-96 989.61,-96 989.61,-102 983.61,-108 977.61,-108"/>
<text text-anchor="middle" x="928.61" y="-87.5" font-family="sans" font-size="10.00">deploy_to_github_pages</text>
</g>
<!-- 17&#45;&gt;0 -->
<g id="edge9" class="edge">
<title>17&#45;&gt;0</title>
<path fill="none" stroke="grey" stroke-width="2" d="M867.31,-74.61C862.69,-73.68 858.08,-72.79 853.61,-72 717.55,-47.82 554.17,-29.97 482,-22.66"/>
<polygon fill="grey" stroke="grey" stroke-width="2" points="482.33,-19.17 472.03,-21.65 481.63,-26.14 482.33,-19.17"/>
</g>
</g>
</svg>
